<mxfile host="app.diagrams.net" modified="2024-05-21T06:24:37.668Z" agent="Mozilla/5.0 (Windows NT 10.0; Win64; x64; rv:126.0) Gecko/20100101 Firefox/126.0" etag="0lvAvkcrYlyWssGqJTnU" version="24.4.4" type="github">
  <diagram id="C5RBs43oDa-KdzZeNtuy" name="Page-1">
    <mxGraphModel dx="1343" dy="1746" grid="1" gridSize="10" guides="1" tooltips="1" connect="1" arrows="1" fold="1" page="1" pageScale="1" pageWidth="827" pageHeight="1169" math="0" shadow="0">
      <root>
        <mxCell id="WIyWlLk6GJQsqaUBKTNV-0" />
        <mxCell id="WIyWlLk6GJQsqaUBKTNV-1" parent="WIyWlLk6GJQsqaUBKTNV-0" />
        <mxCell id="tMJOx-jrIlAq7uAITAlZ-2" value="" style="shape=folder;fontStyle=1;spacingTop=10;tabWidth=140;tabHeight=31;tabPosition=left;html=1;whiteSpace=wrap;" vertex="1" parent="WIyWlLk6GJQsqaUBKTNV-1">
          <mxGeometry x="30" y="39" width="840" height="590" as="geometry" />
        </mxCell>
        <mxCell id="tMJOx-jrIlAq7uAITAlZ-3" value="Estudiante" style="swimlane;fontStyle=0;childLayout=stackLayout;horizontal=1;startSize=26;fillColor=none;horizontalStack=0;resizeParent=1;resizeParentMax=0;resizeLast=0;collapsible=1;marginBottom=0;whiteSpace=wrap;html=1;" vertex="1" parent="WIyWlLk6GJQsqaUBKTNV-1">
          <mxGeometry x="50" y="90" width="320" height="528" as="geometry" />
        </mxCell>
        <mxCell id="tMJOx-jrIlAq7uAITAlZ-5" value="&lt;code&gt;+ nombre: String&lt;/code&gt;" style="text;strokeColor=none;fillColor=none;align=left;verticalAlign=top;spacingLeft=4;spacingRight=4;overflow=hidden;rotatable=0;points=[[0,0.5],[1,0.5]];portConstraint=eastwest;whiteSpace=wrap;html=1;" vertex="1" parent="tMJOx-jrIlAq7uAITAlZ-3">
          <mxGeometry y="26" width="320" height="26" as="geometry" />
        </mxCell>
        <mxCell id="tMJOx-jrIlAq7uAITAlZ-9" value="&lt;code&gt;+ apellido: String&lt;/code&gt;" style="text;strokeColor=none;fillColor=none;align=left;verticalAlign=top;spacingLeft=4;spacingRight=4;overflow=hidden;rotatable=0;points=[[0,0.5],[1,0.5]];portConstraint=eastwest;whiteSpace=wrap;html=1;" vertex="1" parent="tMJOx-jrIlAq7uAITAlZ-3">
          <mxGeometry y="52" width="320" height="26" as="geometry" />
        </mxCell>
        <mxCell id="tMJOx-jrIlAq7uAITAlZ-10" value="&lt;code&gt;+ direccion: String&lt;/code&gt;" style="text;strokeColor=none;fillColor=none;align=left;verticalAlign=top;spacingLeft=4;spacingRight=4;overflow=hidden;rotatable=0;points=[[0,0.5],[1,0.5]];portConstraint=eastwest;whiteSpace=wrap;html=1;" vertex="1" parent="tMJOx-jrIlAq7uAITAlZ-3">
          <mxGeometry y="78" width="320" height="26" as="geometry" />
        </mxCell>
        <mxCell id="tMJOx-jrIlAq7uAITAlZ-13" value="&lt;code&gt;+ numeroInscripcion: String&lt;/code&gt;" style="text;strokeColor=none;fillColor=none;align=left;verticalAlign=top;spacingLeft=4;spacingRight=4;overflow=hidden;rotatable=0;points=[[0,0.5],[1,0.5]];portConstraint=eastwest;whiteSpace=wrap;html=1;" vertex="1" parent="tMJOx-jrIlAq7uAITAlZ-3">
          <mxGeometry y="104" width="320" height="26" as="geometry" />
        </mxCell>
        <mxCell id="tMJOx-jrIlAq7uAITAlZ-4" value="&lt;code&gt;+ inscripcionInmutable: boolean&lt;/code&gt;" style="text;strokeColor=none;fillColor=none;align=left;verticalAlign=top;spacingLeft=4;spacingRight=4;overflow=hidden;rotatable=0;points=[[0,0.5],[1,0.5]];portConstraint=eastwest;whiteSpace=wrap;html=1;" vertex="1" parent="tMJOx-jrIlAq7uAITAlZ-3">
          <mxGeometry y="130" width="320" height="26" as="geometry" />
        </mxCell>
        <mxCell id="tMJOx-jrIlAq7uAITAlZ-12" value="&lt;code&gt;+ materiasPrimerSemestre: List&amp;lt;String&amp;gt;&lt;/code&gt;" style="text;strokeColor=none;fillColor=none;align=left;verticalAlign=top;spacingLeft=4;spacingRight=4;overflow=hidden;rotatable=0;points=[[0,0.5],[1,0.5]];portConstraint=eastwest;whiteSpace=wrap;html=1;" vertex="1" parent="tMJOx-jrIlAq7uAITAlZ-3">
          <mxGeometry y="156" width="320" height="26" as="geometry" />
        </mxCell>
        <mxCell id="tMJOx-jrIlAq7uAITAlZ-21" value="" style="line;strokeWidth=1;fillColor=none;align=left;verticalAlign=middle;spacingTop=-1;spacingLeft=3;spacingRight=3;rotatable=0;labelPosition=right;points=[];portConstraint=eastwest;strokeColor=inherit;" vertex="1" parent="tMJOx-jrIlAq7uAITAlZ-3">
          <mxGeometry y="182" width="320" height="8" as="geometry" />
        </mxCell>
        <mxCell id="tMJOx-jrIlAq7uAITAlZ-11" value="&lt;code&gt;+ Estudiante(String, String, String, String)&lt;/code&gt;" style="text;strokeColor=none;fillColor=none;align=left;verticalAlign=top;spacingLeft=4;spacingRight=4;overflow=hidden;rotatable=0;points=[[0,0.5],[1,0.5]];portConstraint=eastwest;whiteSpace=wrap;html=1;" vertex="1" parent="tMJOx-jrIlAq7uAITAlZ-3">
          <mxGeometry y="190" width="320" height="26" as="geometry" />
        </mxCell>
        <mxCell id="tMJOx-jrIlAq7uAITAlZ-20" value="&lt;code&gt;+getNombre(): String&lt;/code&gt;" style="text;strokeColor=none;fillColor=none;align=left;verticalAlign=top;spacingLeft=4;spacingRight=4;overflow=hidden;rotatable=0;points=[[0,0.5],[1,0.5]];portConstraint=eastwest;whiteSpace=wrap;html=1;" vertex="1" parent="tMJOx-jrIlAq7uAITAlZ-3">
          <mxGeometry y="216" width="320" height="26" as="geometry" />
        </mxCell>
        <mxCell id="tMJOx-jrIlAq7uAITAlZ-19" value="&lt;code&gt;+setNombre(String): void&lt;/code&gt;" style="text;strokeColor=none;fillColor=none;align=left;verticalAlign=top;spacingLeft=4;spacingRight=4;overflow=hidden;rotatable=0;points=[[0,0.5],[1,0.5]];portConstraint=eastwest;whiteSpace=wrap;html=1;" vertex="1" parent="tMJOx-jrIlAq7uAITAlZ-3">
          <mxGeometry y="242" width="320" height="26" as="geometry" />
        </mxCell>
        <mxCell id="tMJOx-jrIlAq7uAITAlZ-18" value="&lt;code&gt;+getApellido(): String&lt;/code&gt;" style="text;strokeColor=none;fillColor=none;align=left;verticalAlign=top;spacingLeft=4;spacingRight=4;overflow=hidden;rotatable=0;points=[[0,0.5],[1,0.5]];portConstraint=eastwest;whiteSpace=wrap;html=1;" vertex="1" parent="tMJOx-jrIlAq7uAITAlZ-3">
          <mxGeometry y="268" width="320" height="26" as="geometry" />
        </mxCell>
        <mxCell id="tMJOx-jrIlAq7uAITAlZ-17" value="&lt;code&gt;+setApellido(String): void&lt;/code&gt;" style="text;strokeColor=none;fillColor=none;align=left;verticalAlign=top;spacingLeft=4;spacingRight=4;overflow=hidden;rotatable=0;points=[[0,0.5],[1,0.5]];portConstraint=eastwest;whiteSpace=wrap;html=1;" vertex="1" parent="tMJOx-jrIlAq7uAITAlZ-3">
          <mxGeometry y="294" width="320" height="26" as="geometry" />
        </mxCell>
        <mxCell id="tMJOx-jrIlAq7uAITAlZ-16" value="&lt;code&gt;+getDireccion(): String&lt;/code&gt;" style="text;strokeColor=none;fillColor=none;align=left;verticalAlign=top;spacingLeft=4;spacingRight=4;overflow=hidden;rotatable=0;points=[[0,0.5],[1,0.5]];portConstraint=eastwest;whiteSpace=wrap;html=1;" vertex="1" parent="tMJOx-jrIlAq7uAITAlZ-3">
          <mxGeometry y="320" width="320" height="26" as="geometry" />
        </mxCell>
        <mxCell id="tMJOx-jrIlAq7uAITAlZ-15" value="&lt;code&gt;+setDireccion(String): void&lt;/code&gt;" style="text;strokeColor=none;fillColor=none;align=left;verticalAlign=top;spacingLeft=4;spacingRight=4;overflow=hidden;rotatable=0;points=[[0,0.5],[1,0.5]];portConstraint=eastwest;whiteSpace=wrap;html=1;" vertex="1" parent="tMJOx-jrIlAq7uAITAlZ-3">
          <mxGeometry y="346" width="320" height="26" as="geometry" />
        </mxCell>
        <mxCell id="tMJOx-jrIlAq7uAITAlZ-14" value="&lt;code&gt;+getNumeroInscripcion(): String&lt;/code&gt;" style="text;strokeColor=none;fillColor=none;align=left;verticalAlign=top;spacingLeft=4;spacingRight=4;overflow=hidden;rotatable=0;points=[[0,0.5],[1,0.5]];portConstraint=eastwest;whiteSpace=wrap;html=1;" vertex="1" parent="tMJOx-jrIlAq7uAITAlZ-3">
          <mxGeometry y="372" width="320" height="26" as="geometry" />
        </mxCell>
        <mxCell id="tMJOx-jrIlAq7uAITAlZ-22" value="&lt;code&gt;setNumeroInscripcion(String): void&lt;/code&gt;" style="text;strokeColor=none;fillColor=none;align=left;verticalAlign=top;spacingLeft=4;spacingRight=4;overflow=hidden;rotatable=0;points=[[0,0.5],[1,0.5]];portConstraint=eastwest;whiteSpace=wrap;html=1;" vertex="1" parent="tMJOx-jrIlAq7uAITAlZ-3">
          <mxGeometry y="398" width="320" height="26" as="geometry" />
        </mxCell>
        <mxCell id="tMJOx-jrIlAq7uAITAlZ-29" value="&lt;code&gt;+isInscripcionInmutable(): boolean&lt;/code&gt;" style="text;strokeColor=none;fillColor=none;align=left;verticalAlign=top;spacingLeft=4;spacingRight=4;overflow=hidden;rotatable=0;points=[[0,0.5],[1,0.5]];portConstraint=eastwest;whiteSpace=wrap;html=1;" vertex="1" parent="tMJOx-jrIlAq7uAITAlZ-3">
          <mxGeometry y="424" width="320" height="26" as="geometry" />
        </mxCell>
        <mxCell id="tMJOx-jrIlAq7uAITAlZ-28" value="&lt;code&gt;+marcarInscripcionComoInmutable(): void&lt;/code&gt;" style="text;strokeColor=none;fillColor=none;align=left;verticalAlign=top;spacingLeft=4;spacingRight=4;overflow=hidden;rotatable=0;points=[[0,0.5],[1,0.5]];portConstraint=eastwest;whiteSpace=wrap;html=1;" vertex="1" parent="tMJOx-jrIlAq7uAITAlZ-3">
          <mxGeometry y="450" width="320" height="26" as="geometry" />
        </mxCell>
        <mxCell id="tMJOx-jrIlAq7uAITAlZ-27" value="&lt;code&gt;+getMateriasPrimerSemestre(): List&amp;lt;String&amp;gt;&lt;/code&gt;" style="text;strokeColor=none;fillColor=none;align=left;verticalAlign=top;spacingLeft=4;spacingRight=4;overflow=hidden;rotatable=0;points=[[0,0.5],[1,0.5]];portConstraint=eastwest;whiteSpace=wrap;html=1;" vertex="1" parent="tMJOx-jrIlAq7uAITAlZ-3">
          <mxGeometry y="476" width="320" height="26" as="geometry" />
        </mxCell>
        <mxCell id="tMJOx-jrIlAq7uAITAlZ-26" value="&lt;code&gt;+agregarMateriaPrimerSemestre(String): void&lt;/code&gt;" style="text;strokeColor=none;fillColor=none;align=left;verticalAlign=top;spacingLeft=4;spacingRight=4;overflow=hidden;rotatable=0;points=[[0,0.5],[1,0.5]];portConstraint=eastwest;whiteSpace=wrap;html=1;" vertex="1" parent="tMJOx-jrIlAq7uAITAlZ-3">
          <mxGeometry y="502" width="320" height="26" as="geometry" />
        </mxCell>
        <mxCell id="tMJOx-jrIlAq7uAITAlZ-30" value="&lt;code&gt;BaseDeDatosEstudiantes&lt;/code&gt;" style="swimlane;fontStyle=0;childLayout=stackLayout;horizontal=1;startSize=26;fillColor=none;horizontalStack=0;resizeParent=1;resizeParentMax=0;resizeLast=0;collapsible=1;marginBottom=0;whiteSpace=wrap;html=1;" vertex="1" parent="WIyWlLk6GJQsqaUBKTNV-1">
          <mxGeometry x="414" y="246" width="430" height="216" as="geometry" />
        </mxCell>
        <mxCell id="tMJOx-jrIlAq7uAITAlZ-31" value="&lt;code&gt;-estudiantes: List&amp;lt;Estudiante&amp;gt;&lt;/code&gt;" style="text;strokeColor=none;fillColor=none;align=left;verticalAlign=top;spacingLeft=4;spacingRight=4;overflow=hidden;rotatable=0;points=[[0,0.5],[1,0.5]];portConstraint=eastwest;whiteSpace=wrap;html=1;" vertex="1" parent="tMJOx-jrIlAq7uAITAlZ-30">
          <mxGeometry y="26" width="430" height="26" as="geometry" />
        </mxCell>
        <mxCell id="tMJOx-jrIlAq7uAITAlZ-32" value="&lt;code&gt;+BaseDeDatosEstudiantes()&lt;/code&gt;" style="text;strokeColor=none;fillColor=none;align=left;verticalAlign=top;spacingLeft=4;spacingRight=4;overflow=hidden;rotatable=0;points=[[0,0.5],[1,0.5]];portConstraint=eastwest;whiteSpace=wrap;html=1;" vertex="1" parent="tMJOx-jrIlAq7uAITAlZ-30">
          <mxGeometry y="52" width="430" height="26" as="geometry" />
        </mxCell>
        <mxCell id="tMJOx-jrIlAq7uAITAlZ-51" value="" style="line;strokeWidth=1;fillColor=none;align=left;verticalAlign=middle;spacingTop=-1;spacingLeft=3;spacingRight=3;rotatable=0;labelPosition=right;points=[];portConstraint=eastwest;strokeColor=inherit;" vertex="1" parent="tMJOx-jrIlAq7uAITAlZ-30">
          <mxGeometry y="78" width="430" height="8" as="geometry" />
        </mxCell>
        <mxCell id="tMJOx-jrIlAq7uAITAlZ-33" value="&lt;code&gt;+agregarEstudiante(Estudiante): void&lt;/code&gt;" style="text;strokeColor=none;fillColor=none;align=left;verticalAlign=top;spacingLeft=4;spacingRight=4;overflow=hidden;rotatable=0;points=[[0,0.5],[1,0.5]];portConstraint=eastwest;whiteSpace=wrap;html=1;" vertex="1" parent="tMJOx-jrIlAq7uAITAlZ-30">
          <mxGeometry y="86" width="430" height="26" as="geometry" />
        </mxCell>
        <mxCell id="tMJOx-jrIlAq7uAITAlZ-34" value="&lt;code&gt;+buscarEstudiantePorNombre(String): Estudiante&lt;/code&gt;" style="text;strokeColor=none;fillColor=none;align=left;verticalAlign=top;spacingLeft=4;spacingRight=4;overflow=hidden;rotatable=0;points=[[0,0.5],[1,0.5]];portConstraint=eastwest;whiteSpace=wrap;html=1;" vertex="1" parent="tMJOx-jrIlAq7uAITAlZ-30">
          <mxGeometry y="112" width="430" height="26" as="geometry" />
        </mxCell>
        <mxCell id="tMJOx-jrIlAq7uAITAlZ-35" value="&lt;code&gt;+buscarEstudiantePorNumeroInscripcion(String): Estudiante&lt;/code&gt;" style="text;strokeColor=none;fillColor=none;align=left;verticalAlign=top;spacingLeft=4;spacingRight=4;overflow=hidden;rotatable=0;points=[[0,0.5],[1,0.5]];portConstraint=eastwest;whiteSpace=wrap;html=1;" vertex="1" parent="tMJOx-jrIlAq7uAITAlZ-30">
          <mxGeometry y="138" width="430" height="26" as="geometry" />
        </mxCell>
        <mxCell id="tMJOx-jrIlAq7uAITAlZ-36" value="&lt;code&gt;+marcarInscripcionComoInmutable(Estudiante): void&lt;/code&gt;" style="text;strokeColor=none;fillColor=none;align=left;verticalAlign=top;spacingLeft=4;spacingRight=4;overflow=hidden;rotatable=0;points=[[0,0.5],[1,0.5]];portConstraint=eastwest;whiteSpace=wrap;html=1;" vertex="1" parent="tMJOx-jrIlAq7uAITAlZ-30">
          <mxGeometry y="164" width="430" height="26" as="geometry" />
        </mxCell>
        <mxCell id="tMJOx-jrIlAq7uAITAlZ-37" value="&lt;code&gt;+cargarEstudiantesDesdeCSV(String): void&lt;/code&gt;" style="text;strokeColor=none;fillColor=none;align=left;verticalAlign=top;spacingLeft=4;spacingRight=4;overflow=hidden;rotatable=0;points=[[0,0.5],[1,0.5]];portConstraint=eastwest;whiteSpace=wrap;html=1;" vertex="1" parent="tMJOx-jrIlAq7uAITAlZ-30">
          <mxGeometry y="190" width="430" height="26" as="geometry" />
        </mxCell>
        <mxCell id="tMJOx-jrIlAq7uAITAlZ-61" value="Modelo" style="text;align=center;fontStyle=1;verticalAlign=middle;spacingLeft=3;spacingRight=3;strokeColor=none;rotatable=0;points=[[0,0.5],[1,0.5]];portConstraint=eastwest;html=1;fontSize=17;" vertex="1" parent="WIyWlLk6GJQsqaUBKTNV-1">
          <mxGeometry y="19" width="170" height="71" as="geometry" />
        </mxCell>
        <mxCell id="tMJOx-jrIlAq7uAITAlZ-62" value="" style="shape=folder;fontStyle=1;spacingTop=10;tabWidth=140;tabHeight=31;tabPosition=left;html=1;whiteSpace=wrap;" vertex="1" parent="WIyWlLk6GJQsqaUBKTNV-1">
          <mxGeometry x="30" y="694" width="330" height="170" as="geometry" />
        </mxCell>
        <mxCell id="tMJOx-jrIlAq7uAITAlZ-63" value="&lt;p&gt;GeneradorNumeroInscripcion&lt;/p&gt;" style="swimlane;fontStyle=0;childLayout=stackLayout;horizontal=1;startSize=26;fillColor=none;horizontalStack=0;resizeParent=1;resizeParentMax=0;resizeLast=0;collapsible=1;marginBottom=0;whiteSpace=wrap;html=1;" vertex="1" parent="WIyWlLk6GJQsqaUBKTNV-1">
          <mxGeometry x="50" y="764" width="270" height="80" as="geometry" />
        </mxCell>
        <mxCell id="tMJOx-jrIlAq7uAITAlZ-64" value="&lt;pre&gt;&lt;code class=&quot;!whitespace-pre hljs language-plaintext&quot;&gt;+generarNumeroInscripcion(): String&lt;/code&gt;&lt;/pre&gt;" style="text;strokeColor=none;fillColor=none;align=left;verticalAlign=top;spacingLeft=4;spacingRight=4;overflow=hidden;rotatable=0;points=[[0,0.5],[1,0.5]];portConstraint=eastwest;whiteSpace=wrap;html=1;" vertex="1" parent="tMJOx-jrIlAq7uAITAlZ-63">
          <mxGeometry y="26" width="270" height="54" as="geometry" />
        </mxCell>
        <mxCell id="tMJOx-jrIlAq7uAITAlZ-72" value="" style="shape=folder;fontStyle=1;spacingTop=10;tabWidth=140;tabHeight=31;tabPosition=left;html=1;whiteSpace=wrap;" vertex="1" parent="WIyWlLk6GJQsqaUBKTNV-1">
          <mxGeometry x="30" y="979" width="330" height="170" as="geometry" />
        </mxCell>
        <mxCell id="tMJOx-jrIlAq7uAITAlZ-73" value="CSVReader" style="swimlane;fontStyle=0;childLayout=stackLayout;horizontal=1;startSize=26;fillColor=none;horizontalStack=0;resizeParent=1;resizeParentMax=0;resizeLast=0;collapsible=1;marginBottom=0;whiteSpace=wrap;html=1;" vertex="1" parent="WIyWlLk6GJQsqaUBKTNV-1">
          <mxGeometry x="50" y="1049" width="270" height="70" as="geometry" />
        </mxCell>
        <mxCell id="tMJOx-jrIlAq7uAITAlZ-74" value="&lt;pre&gt;&lt;code class=&quot;!whitespace-pre hljs language-plaintext&quot;&gt;+leerCSV(String): List&amp;lt;String[]&amp;gt;&lt;/code&gt;&lt;/pre&gt;" style="text;strokeColor=none;fillColor=none;align=left;verticalAlign=top;spacingLeft=4;spacingRight=4;overflow=hidden;rotatable=0;points=[[0,0.5],[1,0.5]];portConstraint=eastwest;whiteSpace=wrap;html=1;" vertex="1" parent="tMJOx-jrIlAq7uAITAlZ-73">
          <mxGeometry y="26" width="270" height="44" as="geometry" />
        </mxCell>
        <mxCell id="tMJOx-jrIlAq7uAITAlZ-75" value="Servicio" style="text;align=center;fontStyle=1;verticalAlign=middle;spacingLeft=3;spacingRight=3;strokeColor=none;rotatable=0;points=[[0,0.5],[1,0.5]];portConstraint=eastwest;html=1;fontSize=18;" vertex="1" parent="WIyWlLk6GJQsqaUBKTNV-1">
          <mxGeometry x="50" y="697" width="80" height="26" as="geometry" />
        </mxCell>
        <mxCell id="tMJOx-jrIlAq7uAITAlZ-76" value="Utilidad" style="text;align=center;fontStyle=1;verticalAlign=middle;spacingLeft=3;spacingRight=3;strokeColor=none;rotatable=0;points=[[0,0.5],[1,0.5]];portConstraint=eastwest;html=1;fontSize=18;" vertex="1" parent="WIyWlLk6GJQsqaUBKTNV-1">
          <mxGeometry x="50" y="981" width="80" height="26" as="geometry" />
        </mxCell>
        <mxCell id="tMJOx-jrIlAq7uAITAlZ-77" value="" style="shape=folder;fontStyle=1;spacingTop=10;tabWidth=140;tabHeight=31;tabPosition=left;html=1;whiteSpace=wrap;" vertex="1" parent="WIyWlLk6GJQsqaUBKTNV-1">
          <mxGeometry x="780" y="699" width="330" height="170" as="geometry" />
        </mxCell>
        <mxCell id="tMJOx-jrIlAq7uAITAlZ-78" value="&lt;code&gt;Main&lt;/code&gt;" style="swimlane;fontStyle=0;childLayout=stackLayout;horizontal=1;startSize=26;fillColor=none;horizontalStack=0;resizeParent=1;resizeParentMax=0;resizeLast=0;collapsible=1;marginBottom=0;whiteSpace=wrap;html=1;" vertex="1" parent="WIyWlLk6GJQsqaUBKTNV-1">
          <mxGeometry x="800" y="769" width="270" height="52" as="geometry" />
        </mxCell>
        <mxCell id="tMJOx-jrIlAq7uAITAlZ-79" value="&lt;code&gt;+main(String[]): void&lt;/code&gt;" style="text;strokeColor=none;fillColor=none;align=left;verticalAlign=top;spacingLeft=4;spacingRight=4;overflow=hidden;rotatable=0;points=[[0,0.5],[1,0.5]];portConstraint=eastwest;whiteSpace=wrap;html=1;" vertex="1" parent="tMJOx-jrIlAq7uAITAlZ-78">
          <mxGeometry y="26" width="270" height="26" as="geometry" />
        </mxCell>
        <mxCell id="tMJOx-jrIlAq7uAITAlZ-80" value="Principal" style="text;align=center;fontStyle=1;verticalAlign=middle;spacingLeft=3;spacingRight=3;strokeColor=none;rotatable=0;points=[[0,0.5],[1,0.5]];portConstraint=eastwest;html=1;fontSize=18;" vertex="1" parent="WIyWlLk6GJQsqaUBKTNV-1">
          <mxGeometry x="800" y="701" width="80" height="26" as="geometry" />
        </mxCell>
        <mxCell id="tMJOx-jrIlAq7uAITAlZ-81" value="" style="shape=folder;fontStyle=1;spacingTop=10;tabWidth=140;tabHeight=31;tabPosition=left;html=1;whiteSpace=wrap;" vertex="1" parent="WIyWlLk6GJQsqaUBKTNV-1">
          <mxGeometry x="970" y="39" width="530" height="510" as="geometry" />
        </mxCell>
        <mxCell id="tMJOx-jrIlAq7uAITAlZ-82" value="&lt;p&gt;EstudianteController&lt;/p&gt;" style="swimlane;fontStyle=0;childLayout=stackLayout;horizontal=1;startSize=26;fillColor=none;horizontalStack=0;resizeParent=1;resizeParentMax=0;resizeLast=0;collapsible=1;marginBottom=0;whiteSpace=wrap;html=1;" vertex="1" parent="WIyWlLk6GJQsqaUBKTNV-1">
          <mxGeometry x="990" y="109" width="450" height="422" as="geometry" />
        </mxCell>
        <mxCell id="tMJOx-jrIlAq7uAITAlZ-83" value="&lt;pre&gt;&lt;code class=&quot;!whitespace-pre hljs language-plaintext&quot;&gt;-baseDeDatos: BaseDeDatosEstudiantes&lt;/code&gt;&lt;/pre&gt;" style="text;strokeColor=none;fillColor=none;align=left;verticalAlign=top;spacingLeft=4;spacingRight=4;overflow=hidden;rotatable=0;points=[[0,0.5],[1,0.5]];portConstraint=eastwest;whiteSpace=wrap;html=1;" vertex="1" parent="tMJOx-jrIlAq7uAITAlZ-82">
          <mxGeometry y="26" width="450" height="44" as="geometry" />
        </mxCell>
        <mxCell id="tMJOx-jrIlAq7uAITAlZ-93" value="&lt;pre&gt;&lt;code class=&quot;!whitespace-pre hljs language-plaintext&quot;&gt;-vista: VistaEstudiante&lt;/code&gt;&lt;/pre&gt;" style="text;strokeColor=none;fillColor=none;align=left;verticalAlign=top;spacingLeft=4;spacingRight=4;overflow=hidden;rotatable=0;points=[[0,0.5],[1,0.5]];portConstraint=eastwest;whiteSpace=wrap;html=1;" vertex="1" parent="tMJOx-jrIlAq7uAITAlZ-82">
          <mxGeometry y="70" width="450" height="44" as="geometry" />
        </mxCell>
        <mxCell id="tMJOx-jrIlAq7uAITAlZ-92" value="&lt;pre&gt;&lt;code class=&quot;!whitespace-pre hljs language-plaintext&quot;&gt;+EstudianteController(BaseDeDatosEstudiantes, VistaEstudiante)&lt;/code&gt;&lt;/pre&gt;" style="text;strokeColor=none;fillColor=none;align=left;verticalAlign=top;spacingLeft=4;spacingRight=4;overflow=hidden;rotatable=0;points=[[0,0.5],[1,0.5]];portConstraint=eastwest;whiteSpace=wrap;html=1;" vertex="1" parent="tMJOx-jrIlAq7uAITAlZ-82">
          <mxGeometry y="114" width="450" height="44" as="geometry" />
        </mxCell>
        <mxCell id="tMJOx-jrIlAq7uAITAlZ-94" value="&lt;pre&gt;&lt;code class=&quot;!whitespace-pre hljs language-plaintext&quot;&gt;+agregarEstudiante(String, String, String): void&lt;/code&gt;&lt;/pre&gt;" style="text;strokeColor=none;fillColor=none;align=left;verticalAlign=top;spacingLeft=4;spacingRight=4;overflow=hidden;rotatable=0;points=[[0,0.5],[1,0.5]];portConstraint=eastwest;whiteSpace=wrap;html=1;" vertex="1" parent="tMJOx-jrIlAq7uAITAlZ-82">
          <mxGeometry y="158" width="450" height="44" as="geometry" />
        </mxCell>
        <mxCell id="tMJOx-jrIlAq7uAITAlZ-95" value="&lt;pre&gt;&lt;code class=&quot;!whitespace-pre hljs language-plaintext&quot;&gt;+buscarEstudiantePorNombre(String): void&lt;/code&gt;&lt;/pre&gt;" style="text;strokeColor=none;fillColor=none;align=left;verticalAlign=top;spacingLeft=4;spacingRight=4;overflow=hidden;rotatable=0;points=[[0,0.5],[1,0.5]];portConstraint=eastwest;whiteSpace=wrap;html=1;" vertex="1" parent="tMJOx-jrIlAq7uAITAlZ-82">
          <mxGeometry y="202" width="450" height="44" as="geometry" />
        </mxCell>
        <mxCell id="tMJOx-jrIlAq7uAITAlZ-99" value="&lt;pre&gt;&lt;code class=&quot;!whitespace-pre hljs language-plaintext&quot;&gt;+buscarEstudiantePorNumeroInscripcion(String): void&lt;/code&gt;&lt;/pre&gt;" style="text;strokeColor=none;fillColor=none;align=left;verticalAlign=top;spacingLeft=4;spacingRight=4;overflow=hidden;rotatable=0;points=[[0,0.5],[1,0.5]];portConstraint=eastwest;whiteSpace=wrap;html=1;" vertex="1" parent="tMJOx-jrIlAq7uAITAlZ-82">
          <mxGeometry y="246" width="450" height="44" as="geometry" />
        </mxCell>
        <mxCell id="tMJOx-jrIlAq7uAITAlZ-98" value="&lt;pre&gt;&lt;code class=&quot;!whitespace-pre hljs language-plaintext&quot;&gt;+marcarInscripcionComoInmutable(String): void&lt;/code&gt;&lt;/pre&gt;" style="text;strokeColor=none;fillColor=none;align=left;verticalAlign=top;spacingLeft=4;spacingRight=4;overflow=hidden;rotatable=0;points=[[0,0.5],[1,0.5]];portConstraint=eastwest;whiteSpace=wrap;html=1;" vertex="1" parent="tMJOx-jrIlAq7uAITAlZ-82">
          <mxGeometry y="290" width="450" height="44" as="geometry" />
        </mxCell>
        <mxCell id="tMJOx-jrIlAq7uAITAlZ-97" value="&lt;pre&gt;&lt;code class=&quot;!whitespace-pre hljs language-plaintext&quot;&gt;+cargarEstudiantesDesdeCSV(String): void&lt;/code&gt;&lt;/pre&gt;" style="text;strokeColor=none;fillColor=none;align=left;verticalAlign=top;spacingLeft=4;spacingRight=4;overflow=hidden;rotatable=0;points=[[0,0.5],[1,0.5]];portConstraint=eastwest;whiteSpace=wrap;html=1;" vertex="1" parent="tMJOx-jrIlAq7uAITAlZ-82">
          <mxGeometry y="334" width="450" height="44" as="geometry" />
        </mxCell>
        <mxCell id="tMJOx-jrIlAq7uAITAlZ-96" value="&lt;pre&gt;&lt;code class=&quot;!whitespace-pre hljs language-plaintext&quot;&gt;+mostrarTodosLosEstudiantes(): void&lt;/code&gt;&lt;/pre&gt;" style="text;strokeColor=none;fillColor=none;align=left;verticalAlign=top;spacingLeft=4;spacingRight=4;overflow=hidden;rotatable=0;points=[[0,0.5],[1,0.5]];portConstraint=eastwest;whiteSpace=wrap;html=1;" vertex="1" parent="tMJOx-jrIlAq7uAITAlZ-82">
          <mxGeometry y="378" width="450" height="44" as="geometry" />
        </mxCell>
        <mxCell id="tMJOx-jrIlAq7uAITAlZ-84" value="Controlador" style="text;align=center;fontStyle=1;verticalAlign=middle;spacingLeft=3;spacingRight=3;strokeColor=none;rotatable=0;points=[[0,0.5],[1,0.5]];portConstraint=eastwest;html=1;fontSize=18;" vertex="1" parent="WIyWlLk6GJQsqaUBKTNV-1">
          <mxGeometry x="990" y="41" width="80" height="26" as="geometry" />
        </mxCell>
        <mxCell id="tMJOx-jrIlAq7uAITAlZ-85" value="" style="shape=folder;fontStyle=1;spacingTop=10;tabWidth=140;tabHeight=31;tabPosition=left;html=1;whiteSpace=wrap;" vertex="1" parent="WIyWlLk6GJQsqaUBKTNV-1">
          <mxGeometry x="400" y="697" width="330" height="228" as="geometry" />
        </mxCell>
        <mxCell id="tMJOx-jrIlAq7uAITAlZ-86" value="&lt;p&gt;VistaEstudiante&lt;/p&gt;" style="swimlane;fontStyle=0;childLayout=stackLayout;horizontal=1;startSize=26;fillColor=none;horizontalStack=0;resizeParent=1;resizeParentMax=0;resizeLast=0;collapsible=1;marginBottom=0;whiteSpace=wrap;html=1;" vertex="1" parent="WIyWlLk6GJQsqaUBKTNV-1">
          <mxGeometry x="420" y="767" width="270" height="134" as="geometry" />
        </mxCell>
        <mxCell id="tMJOx-jrIlAq7uAITAlZ-101" value="&lt;pre&gt;&lt;code class=&quot;!whitespace-pre hljs language-plaintext&quot;&gt;+mostrarMensaje(String): void&lt;/code&gt;&lt;/pre&gt;" style="text;strokeColor=none;fillColor=none;align=left;verticalAlign=top;spacingLeft=4;spacingRight=4;overflow=hidden;rotatable=0;points=[[0,0.5],[1,0.5]];portConstraint=eastwest;whiteSpace=wrap;html=1;" vertex="1" parent="tMJOx-jrIlAq7uAITAlZ-86">
          <mxGeometry y="26" width="270" height="54" as="geometry" />
        </mxCell>
        <mxCell id="tMJOx-jrIlAq7uAITAlZ-87" value="&lt;pre&gt;&lt;code class=&quot;!whitespace-pre hljs language-plaintext&quot;&gt;+mostrarEstudiante(Estudiante): void&lt;/code&gt;&lt;/pre&gt;" style="text;strokeColor=none;fillColor=none;align=left;verticalAlign=top;spacingLeft=4;spacingRight=4;overflow=hidden;rotatable=0;points=[[0,0.5],[1,0.5]];portConstraint=eastwest;whiteSpace=wrap;html=1;" vertex="1" parent="tMJOx-jrIlAq7uAITAlZ-86">
          <mxGeometry y="80" width="270" height="54" as="geometry" />
        </mxCell>
        <mxCell id="tMJOx-jrIlAq7uAITAlZ-88" value="Vista" style="text;align=center;fontStyle=1;verticalAlign=middle;spacingLeft=3;spacingRight=3;strokeColor=none;rotatable=0;points=[[0,0.5],[1,0.5]];portConstraint=eastwest;html=1;fontSize=18;" vertex="1" parent="WIyWlLk6GJQsqaUBKTNV-1">
          <mxGeometry x="420" y="699" width="80" height="26" as="geometry" />
        </mxCell>
        <mxCell id="tMJOx-jrIlAq7uAITAlZ-102" value="" style="shape=folder;fontStyle=1;spacingTop=10;tabWidth=140;tabHeight=31;tabPosition=left;html=1;whiteSpace=wrap;" vertex="1" parent="WIyWlLk6GJQsqaUBKTNV-1">
          <mxGeometry x="400" y="977" width="330" height="188" as="geometry" />
        </mxCell>
        <mxCell id="tMJOx-jrIlAq7uAITAlZ-103" value="Main" style="swimlane;fontStyle=0;childLayout=stackLayout;horizontal=1;startSize=26;fillColor=none;horizontalStack=0;resizeParent=1;resizeParentMax=0;resizeLast=0;collapsible=1;marginBottom=0;whiteSpace=wrap;html=1;" vertex="1" parent="WIyWlLk6GJQsqaUBKTNV-1">
          <mxGeometry x="420" y="1047" width="270" height="80" as="geometry" />
        </mxCell>
        <mxCell id="tMJOx-jrIlAq7uAITAlZ-104" value="&lt;pre&gt;&lt;code class=&quot;!whitespace-pre hljs language-plaintext&quot;&gt;+main(String[]): void&lt;/code&gt;&lt;/pre&gt;" style="text;strokeColor=none;fillColor=none;align=left;verticalAlign=top;spacingLeft=4;spacingRight=4;overflow=hidden;rotatable=0;points=[[0,0.5],[1,0.5]];portConstraint=eastwest;whiteSpace=wrap;html=1;" vertex="1" parent="tMJOx-jrIlAq7uAITAlZ-103">
          <mxGeometry y="26" width="270" height="54" as="geometry" />
        </mxCell>
        <mxCell id="tMJOx-jrIlAq7uAITAlZ-106" value="Principal" style="text;align=center;fontStyle=1;verticalAlign=middle;spacingLeft=3;spacingRight=3;strokeColor=none;rotatable=0;points=[[0,0.5],[1,0.5]];portConstraint=eastwest;html=1;fontSize=18;" vertex="1" parent="WIyWlLk6GJQsqaUBKTNV-1">
          <mxGeometry x="420" y="979" width="80" height="26" as="geometry" />
        </mxCell>
        <mxCell id="tMJOx-jrIlAq7uAITAlZ-107" value="Actor" style="shape=umlActor;verticalLabelPosition=bottom;verticalAlign=top;html=1;" vertex="1" parent="WIyWlLk6GJQsqaUBKTNV-1">
          <mxGeometry x="40" y="1280" width="30" height="60" as="geometry" />
        </mxCell>
        <mxCell id="tMJOx-jrIlAq7uAITAlZ-108" value="" style="shape=folder;fontStyle=1;spacingTop=10;tabWidth=140;tabHeight=31;tabPosition=left;html=1;whiteSpace=wrap;" vertex="1" parent="WIyWlLk6GJQsqaUBKTNV-1">
          <mxGeometry x="20" y="-440" width="270" height="250" as="geometry" />
        </mxCell>
        <mxCell id="tMJOx-jrIlAq7uAITAlZ-109" value="Modelo" style="text;align=center;fontStyle=1;verticalAlign=middle;spacingLeft=3;spacingRight=3;strokeColor=none;rotatable=0;points=[[0,0.5],[1,0.5]];portConstraint=eastwest;html=1;fontSize=17;" vertex="1" parent="WIyWlLk6GJQsqaUBKTNV-1">
          <mxGeometry x="10" y="-460" width="170" height="71" as="geometry" />
        </mxCell>
        <mxCell id="tMJOx-jrIlAq7uAITAlZ-110" value="Estudiante" style="swimlane;fontStyle=0;childLayout=stackLayout;horizontal=1;startSize=26;fillColor=none;horizontalStack=0;resizeParent=1;resizeParentMax=0;resizeLast=0;collapsible=1;marginBottom=0;whiteSpace=wrap;html=1;" vertex="1" parent="WIyWlLk6GJQsqaUBKTNV-1">
          <mxGeometry x="60" y="-370" width="180" height="52" as="geometry" />
        </mxCell>
        <mxCell id="tMJOx-jrIlAq7uAITAlZ-131" value="Base de datos de estudiante" style="swimlane;fontStyle=0;childLayout=stackLayout;horizontal=1;startSize=26;fillColor=none;horizontalStack=0;resizeParent=1;resizeParentMax=0;resizeLast=0;collapsible=1;marginBottom=0;whiteSpace=wrap;html=1;" vertex="1" parent="WIyWlLk6GJQsqaUBKTNV-1">
          <mxGeometry x="60" y="-290" width="180" height="52" as="geometry" />
        </mxCell>
      </root>
    </mxGraphModel>
  </diagram>
</mxfile>
